<svg width="64" height="64" viewBox="0 0 64 64" fill="none" xmlns="http://www.w3.org/2000/svg">
<path d="M59.92 50.1867L57.2533 39.8933L48.8533 8.98667C48.6718 8.30491 48.2275 7.72286 47.6178 7.368C47.008 7.01313 46.2824 6.91437 45.6 7.09333L35.28 9.76C35.0337 9.48705 34.7336 9.26798 34.3986 9.11654C34.0636 8.9651 33.7009 8.88457 33.3333 8.88H6.66667C5.95942 8.88 5.28115 9.16095 4.78105 9.66105C4.28095 10.1611 4 10.8394 4 11.5467V54.2133C4 54.9206 4.28095 55.5989 4.78105 56.099C5.28115 56.599 5.95942 56.88 6.66667 56.88H33.3333C34.0406 56.88 34.7189 56.599 35.219 56.099C35.7191 55.5989 36 54.9206 36 54.2133V32.88L41.8667 54.8C42.0229 55.3818 42.3716 55.8935 42.8558 56.2518C43.34 56.6101 43.9313 56.794 44.5333 56.7733C44.7637 56.7995 44.9963 56.7995 45.2267 56.7733L58.1067 53.3333C58.4472 53.2423 58.7663 53.0846 59.0455 52.8695C59.3247 52.6544 59.5585 52.386 59.7333 52.08C60.0146 51.49 60.0807 50.8202 59.92 50.1867ZM17.2533 51.6533H9.25333V46.32H17.2533V51.6533ZM17.2533 40.9867H9.25333V24.9867H17.2533V40.9867ZM17.2533 19.6533H9.25333V14.32H17.2533V19.6533ZM30.5867 51.6533H22.5867V46.32H30.5867V51.6533ZM30.5867 40.9867H22.5867V24.9867H30.5867V40.9867ZM30.5867 19.6533H22.5867V14.32H30.5867V19.6533ZM36.5867 15.0133L44.32 12.9333L45.7067 18.08L37.9733 20.16L36.5867 15.0133ZM43.4933 40.7733L39.36 25.3067L47.0933 23.2267L51.2267 38.6933L43.4933 40.7733ZM46.16 51.0667L44.7733 45.92L52.5067 43.84L53.8933 48.9867L46.16 51.0667Z" fill="#010030"/>
</svg>
