<svg width="64" height="64" viewBox="0 0 54 54" fill="none" xmlns="http://www.w3.org/2000/svg">
<path d="M8.3335 43H19.6402C19.9911 43.002 20.339 42.9348 20.6639 42.8021C20.9888 42.6694 21.2843 42.4738 21.5335 42.2267L39.9868 23.7467L47.5602 16.3333C47.8101 16.0854 48.0085 15.7905 48.1439 15.4655C48.2793 15.1406 48.349 14.792 48.349 14.44C48.349 14.088 48.2793 13.7394 48.1439 13.4145C48.0085 13.0895 47.8101 12.7946 47.5602 12.5467L36.2535 1.10667C36.0056 0.856724 35.7107 0.658339 35.3857 0.522956C35.0607 0.387573 34.7122 0.317871 34.3602 0.317871C34.0081 0.317871 33.6596 0.387573 33.3346 0.522956C33.0097 0.658339 32.7147 0.856724 32.4668 1.10667L24.9468 8.65333L6.44016 27.1333C6.19301 27.3825 5.99748 27.678 5.86477 28.0029C5.73207 28.3278 5.6648 28.6757 5.66683 29.0267V40.3333C5.66683 41.0406 5.94778 41.7189 6.44788 42.219C6.94798 42.7191 7.62625 43 8.3335 43ZM34.3602 6.76L41.9068 14.3067L38.1202 18.0933L30.5735 10.5467L34.3602 6.76ZM11.0002 30.12L26.8135 14.3067L34.3602 21.8533L18.5468 37.6667H11.0002V30.12ZM51.0002 48.3333H3.00016C2.29292 48.3333 1.61464 48.6143 1.11454 49.1144C0.614448 49.6145 0.333496 50.2928 0.333496 51C0.333496 51.7072 0.614448 52.3855 1.11454 52.8856C1.61464 53.3857 2.29292 53.6667 3.00016 53.6667H51.0002C51.7074 53.6667 52.3857 53.3857 52.8858 52.8856C53.3859 52.3855 53.6668 51.7072 53.6668 51C53.6668 50.2928 53.3859 49.6145 52.8858 49.1144C52.3857 48.6143 51.7074 48.3333 51.0002 48.3333Z" fill="#010030"/>
</svg>
