<svg width="64" height="64" viewBox="0 0 64 64" fill="none" xmlns="http://www.w3.org/2000/svg">
<path d="M18.6667 42.6666C19.7275 42.6666 20.7449 42.2452 21.4951 41.4951C22.2452 40.7449 22.6667 39.7275 22.6667 38.6666C22.6797 38.5336 22.6797 38.3997 22.6667 38.2666L30.1067 30.8266H30.72H31.3333L35.6267 35.12C35.6267 35.12 35.6267 35.2533 35.6267 35.3333C35.6267 36.3942 36.0481 37.4116 36.7982 38.1617C37.5484 38.9119 38.5658 39.3333 39.6267 39.3333C40.6875 39.3333 41.7049 38.9119 42.4551 38.1617C43.2052 37.4116 43.6267 36.3942 43.6267 35.3333V35.12L53.3333 25.3333C54.1245 25.3333 54.8978 25.0987 55.5556 24.6592C56.2134 24.2197 56.7261 23.595 57.0288 22.864C57.3316 22.1331 57.4108 21.3289 57.2565 20.553C57.1021 19.777 56.7212 19.0643 56.1618 18.5049C55.6023 17.9455 54.8896 17.5645 54.1137 17.4102C53.3378 17.2558 52.5335 17.335 51.8026 17.6378C51.0717 17.9405 50.447 18.4532 50.0075 19.111C49.5679 19.7688 49.3333 20.5422 49.3333 21.3333C49.3203 21.4663 49.3203 21.6003 49.3333 21.7333L39.7067 31.36H39.28L34.6667 26.6666C34.6667 25.6058 34.2452 24.5884 33.4951 23.8382C32.7449 23.0881 31.7275 22.6666 30.6667 22.6666C29.6058 22.6666 28.5884 23.0881 27.8382 23.8382C27.0881 24.5884 26.6667 25.6058 26.6667 26.6666L18.6667 34.6666C17.6058 34.6666 16.5884 35.0881 15.8382 35.8382C15.0881 36.5884 14.6667 37.6058 14.6667 38.6666C14.6667 39.7275 15.0881 40.7449 15.8382 41.4951C16.5884 42.2452 17.6058 42.6666 18.6667 42.6666V42.6666ZM54.6667 53.3333H9.33333V7.99998C9.33333 7.29274 9.05238 6.61446 8.55228 6.11436C8.05219 5.61426 7.37391 5.33331 6.66667 5.33331C5.95942 5.33331 5.28115 5.61426 4.78105 6.11436C4.28095 6.61446 4 7.29274 4 7.99998V56C4 56.7072 4.28095 57.3855 4.78105 57.8856C5.28115 58.3857 5.95942 58.6666 6.66667 58.6666H54.6667C55.3739 58.6666 56.0522 58.3857 56.5523 57.8856C57.0524 57.3855 57.3333 56.7072 57.3333 56C57.3333 55.2927 57.0524 54.6145 56.5523 54.1144C56.0522 53.6143 55.3739 53.3333 54.6667 53.3333Z" fill="#010030"/>
</svg>
