<svg width="28" height="28" viewBox="0 0 28 28" fill="none" xmlns="http://www.w3.org/2000/svg">
<circle cx="14" cy="14" r="14" fill="#6B10B1"/>
<path d="M20.7099 8.20998C20.617 8.11625 20.5064 8.04186 20.3845 7.99109C20.2627 7.94032 20.132 7.91418 19.9999 7.91418C19.8679 7.91418 19.7372 7.94032 19.6154 7.99109C19.4935 8.04186 19.3829 8.11625 19.29 8.20998L11.84 15.67L8.70995 12.53C8.61343 12.4367 8.49949 12.3634 8.37463 12.3142C8.24978 12.265 8.11645 12.2409 7.98227 12.2432C7.84809 12.2455 7.71568 12.2743 7.5926 12.3278C7.46953 12.3812 7.35819 12.4585 7.26495 12.555C7.17171 12.6515 7.0984 12.7654 7.04919 12.8903C6.99999 13.0152 6.97586 13.1485 6.97818 13.2827C6.9805 13.4168 7.00923 13.5493 7.06272 13.6723C7.11622 13.7954 7.19343 13.9067 7.28995 14L11.13 17.84C11.2229 17.9337 11.3335 18.0081 11.4554 18.0589C11.5772 18.1096 11.7079 18.1358 11.84 18.1358C11.972 18.1358 12.1027 18.1096 12.2245 18.0589C12.3464 18.0081 12.457 17.9337 12.55 17.84L20.7099 9.67998C20.8115 9.58634 20.8925 9.47269 20.9479 9.34619C21.0033 9.21969 21.0319 9.08308 21.0319 8.94498C21.0319 8.80688 21.0033 8.67028 20.9479 8.54378C20.8925 8.41728 20.8115 8.30363 20.7099 8.20998Z" fill="white"/>
</svg>
